<svg width="206" height="43" viewBox="0 0 206 43" fill="none" xmlns="http://www.w3.org/2000/svg">
<path d="M8.95703 37.3125C6.47005 37.3125 4.46484 36.5378 2.94141 34.9883C1.43099 33.4388 0.675781 31.2708 0.675781 28.4844V12.625C0.675781 9.29167 1.33333 6.73958 2.64844 4.96875C3.97656 3.19792 6.13151 2.3125 9.11328 2.3125C10.7409 2.3125 12.1862 2.61198 13.4492 3.21094C14.7253 3.8099 15.7279 4.70833 16.457 5.90625C17.1862 7.09115 17.5508 8.58854 17.5508 10.3984V16.3359H10.7148V11.2578C10.7148 10.2292 10.5846 9.53906 10.3242 9.1875C10.0638 8.82292 9.66016 8.64062 9.11328 8.64062C8.47526 8.64062 8.04557 8.875 7.82422 9.34375C7.60286 9.79948 7.49219 10.4115 7.49219 11.1797V28.3867C7.49219 29.3372 7.62891 30.0078 7.90234 30.3984C8.1888 30.7891 8.59245 30.9844 9.11328 30.9844C9.69922 30.9844 10.1094 30.7435 10.3438 30.2617C10.5911 29.7799 10.7148 29.1549 10.7148 28.3867V22.1953H17.6289V28.6992C17.6289 31.7201 16.8672 33.9141 15.3438 35.2812C13.8203 36.6354 11.6914 37.3125 8.95703 37.3125ZM28.332 37.3125C22.4987 37.3125 19.582 34.2852 19.582 28.2305V16.4727C19.582 13.7122 20.3568 11.5117 21.9062 9.87109C23.4557 8.21745 25.5977 7.39062 28.332 7.39062C31.0794 7.39062 33.2279 8.21745 34.7773 9.87109C36.3268 11.5117 37.1016 13.7122 37.1016 16.4727V28.2305C37.1016 34.2852 34.1784 37.3125 28.332 37.3125ZM28.332 31.9219C28.918 31.9219 29.3346 31.7135 29.582 31.2969C29.8424 30.8672 29.9727 30.3268 29.9727 29.6758V15.3594C29.9727 13.6536 29.4258 12.8008 28.332 12.8008C27.2383 12.8008 26.6914 13.6536 26.6914 15.3594V29.6758C26.6914 30.3268 26.8151 30.8672 27.0625 31.2969C27.3229 31.7135 27.7461 31.9219 28.332 31.9219ZM39.6992 37V7.70312H46.5352V11.1016C46.8477 9.90365 47.3815 8.98568 48.1367 8.34766C48.8919 7.70964 49.9987 7.39062 51.457 7.39062C52.6289 7.39062 53.625 7.66406 54.4453 8.21094C55.2786 8.74479 55.8646 9.45443 56.2031 10.3398C56.737 9.3763 57.362 8.64714 58.0781 8.15234C58.8073 7.64453 59.8424 7.39062 61.1836 7.39062C62.8112 7.39062 64.0612 7.74219 64.9336 8.44531C65.819 9.13542 66.431 10.099 66.7695 11.3359C67.1211 12.5599 67.2969 13.9792 67.2969 15.5938V37H60.3242V15.4766C60.3242 13.5885 59.8424 12.6445 58.8789 12.6445C58.3711 12.6445 57.9805 12.8203 57.707 13.1719C57.4336 13.5104 57.2448 13.9336 57.1406 14.4414C57.0365 14.9492 56.9844 15.457 56.9844 15.9648V37H50.0117V15.4766C50.0117 14.8646 49.9336 14.2526 49.7773 13.6406C49.6341 13.0286 49.2565 12.7227 48.6445 12.7227C48.1237 12.7227 47.7201 12.9115 47.4336 13.2891C47.1471 13.6667 46.9518 14.1354 46.8477 14.6953C46.7435 15.2422 46.6914 15.7826 46.6914 16.3164V37H39.6992ZM70.0117 5.90625V0.0859375H77.0039V5.90625H70.0117ZM70.0117 37V7.70312H77.0039V37H70.0117ZM79.7773 37V7.70312H86.7695V11.4336C87.0299 10.3138 87.5117 9.36328 88.2148 8.58203C88.931 7.78776 89.9206 7.39062 91.1836 7.39062C93.2148 7.39062 94.6862 8.01562 95.5977 9.26562C96.5221 10.5156 96.9844 12.2279 96.9844 14.4023V37H90.0898V15.125C90.0898 14.5521 89.9727 14.0247 89.7383 13.543C89.5039 13.0482 89.1003 12.8008 88.5273 12.8008C87.9935 12.8008 87.5964 12.9896 87.3359 13.3672C87.0885 13.7318 86.9323 14.194 86.8672 14.7539C86.8021 15.3008 86.7695 15.8477 86.7695 16.3945V37H79.7773ZM107.629 42.0781C106.275 42.0781 105.109 42.0065 104.133 41.8633C103.169 41.7331 102.303 41.4922 101.535 41.1406C100.767 40.7891 99.9987 40.2943 99.2305 39.6562L101.594 35.6133C103.299 36.6289 105.005 37.1367 106.711 37.1367C107.831 37.1367 108.664 36.7786 109.211 36.0625C109.758 35.3464 110.031 34.4154 110.031 33.2695V30.3984C109.471 32.4036 107.98 33.4062 105.559 33.4062C104.165 33.4062 103.039 33.0742 102.18 32.4102C101.32 31.7461 100.695 30.8477 100.305 29.7148C99.9141 28.582 99.7188 27.319 99.7188 25.9258V15.3984C99.7188 13.8229 99.888 12.4362 100.227 11.2383C100.565 10.0273 101.158 9.08333 102.004 8.40625C102.85 7.72917 104.035 7.39062 105.559 7.39062C106.848 7.39062 107.85 7.71615 108.566 8.36719C109.296 9.01823 109.784 9.89714 110.031 11.0039V7.70312H117.16V32.8203C117.16 36.1406 116.392 38.5104 114.855 39.9297C113.332 41.362 110.923 42.0781 107.629 42.0781ZM108.391 28.1328C109.484 28.1328 110.031 27.1432 110.031 25.1641V15.2031C110.031 14.6693 109.875 14.1224 109.562 13.5625C109.263 13.0026 108.846 12.7227 108.312 12.7227C107.635 12.7227 107.212 12.9766 107.043 13.4844C106.874 13.9792 106.789 14.5521 106.789 15.2031V25.1641C106.789 25.8672 106.874 26.5378 107.043 27.1758C107.225 27.8138 107.674 28.1328 108.391 28.1328ZM137.297 37.3125C131.516 37.3125 128.625 34.3828 128.625 28.5234V26.1992H135.656V29.6367C135.656 30.3008 135.786 30.8216 136.047 31.1992C136.307 31.5768 136.724 31.7656 137.297 31.7656C138.312 31.7656 138.82 31.0039 138.82 29.4805C138.82 28.2044 138.553 27.2539 138.02 26.6289C137.486 25.9909 136.835 25.3789 136.066 24.793L132.336 21.9219C131.164 21.0104 130.272 20.0469 129.66 19.0312C129.048 18.0156 128.742 16.6029 128.742 14.793C128.742 13.1133 129.139 11.7266 129.934 10.6328C130.741 9.53906 131.802 8.72526 133.117 8.19141C134.445 7.65755 135.878 7.39062 137.414 7.39062C143.091 7.39062 145.93 10.2227 145.93 15.8867V16.4336H138.703V15.3203C138.703 14.7344 138.599 14.168 138.391 13.6211C138.195 13.0742 137.805 12.8008 137.219 12.8008C136.229 12.8008 135.734 13.3216 135.734 14.3633C135.734 15.418 136.151 16.2448 136.984 16.8438L141.32 20.0078C142.674 20.9844 143.807 22.1432 144.719 23.4844C145.643 24.8255 146.105 26.6094 146.105 28.8359C146.105 31.5964 145.318 33.6992 143.742 35.1445C142.18 36.5898 140.031 37.3125 137.297 37.3125ZM156.77 37.3125C150.936 37.3125 148.02 34.2852 148.02 28.2305V16.4727C148.02 13.7122 148.794 11.5117 150.344 9.87109C151.893 8.21745 154.035 7.39062 156.77 7.39062C159.517 7.39062 161.665 8.21745 163.215 9.87109C164.764 11.5117 165.539 13.7122 165.539 16.4727V28.2305C165.539 34.2852 162.616 37.3125 156.77 37.3125ZM156.77 31.9219C157.355 31.9219 157.772 31.7135 158.02 31.2969C158.28 30.8672 158.41 30.3268 158.41 29.6758V15.3594C158.41 13.6536 157.863 12.8008 156.77 12.8008C155.676 12.8008 155.129 13.6536 155.129 15.3594V29.6758C155.129 30.3268 155.253 30.8672 155.5 31.2969C155.76 31.7135 156.184 31.9219 156.77 31.9219ZM176.652 37.3125C170.819 37.3125 167.902 34.2852 167.902 28.2305V16.4727C167.902 13.7122 168.677 11.5117 170.227 9.87109C171.776 8.21745 173.918 7.39062 176.652 7.39062C179.4 7.39062 181.548 8.21745 183.098 9.87109C184.647 11.5117 185.422 13.7122 185.422 16.4727V28.2305C185.422 34.2852 182.499 37.3125 176.652 37.3125ZM176.652 31.9219C177.238 31.9219 177.655 31.7135 177.902 31.2969C178.163 30.8672 178.293 30.3268 178.293 29.6758V15.3594C178.293 13.6536 177.746 12.8008 176.652 12.8008C175.559 12.8008 175.012 13.6536 175.012 15.3594V29.6758C175.012 30.3268 175.135 30.8672 175.383 31.2969C175.643 31.7135 176.066 31.9219 176.652 31.9219ZM188.02 37V7.70312H195.012V11.4336C195.272 10.3138 195.754 9.36328 196.457 8.58203C197.173 7.78776 198.163 7.39062 199.426 7.39062C201.457 7.39062 202.928 8.01562 203.84 9.26562C204.764 10.5156 205.227 12.2279 205.227 14.4023V37H198.332V15.125C198.332 14.5521 198.215 14.0247 197.98 13.543C197.746 13.0482 197.342 12.8008 196.77 12.8008C196.236 12.8008 195.839 12.9896 195.578 13.3672C195.331 13.7318 195.174 14.194 195.109 14.7539C195.044 15.3008 195.012 15.8477 195.012 16.3945V37H188.02Z" fill="#00FBDF"/>
</svg>
