<svg width="243" height="49" viewBox="0 0 243 49" fill="none" xmlns="http://www.w3.org/2000/svg">
  <mask id="path-1-outside-1_9898_1293" maskUnits="userSpaceOnUse" x="0.5" y="-3" width="242" height="52" fill="black">
    <rect fill="white" x="0.5" y="-3" width="242" height="52" />
    <path fill-rule="evenodd" clip-rule="evenodd" d="M41.8491 38.8157L45.606 34.2867L69.4957 7.5593L85.4131 7.5593L93.3626 37.9621L103.057 7.5593L120.884 7.5593C122.671 7.5593 124.526 7.66031 126.447 7.86099C128.469 8.03859 130.289 8.42427 131.892 9.0285C133.566 9.62778 134.845 10.5318 135.707 11.7239C136.632 12.9602 136.734 14.5199 136.197 16.3175C135.683 18.0361 134.621 19.4816 132.992 20.6256C131.936 21.3863 130.731 22.0123 129.382 22.5043C129.68 22.6135 129.973 22.7341 130.26 22.8659C131.226 23.2783 132.042 23.8166 132.704 24.4756C133.395 25.1255 133.855 25.8802 134.098 26.7265C134.347 27.5959 134.306 28.5365 134.007 29.5368C133.492 31.2607 132.535 32.7437 131.117 33.9652C129.78 35.131 128.162 36.0864 126.271 36.8305L126.267 36.8324C124.437 37.543 122.419 38.0575 120.219 38.3795L120.206 38.3814C118.08 38.671 115.934 38.8157 113.769 38.8157H75.8987L74.9653 34.4234H62.6859L59.2487 38.8157H41.8491ZM117.874 27.5643L117.854 27.5407C117.75 27.4129 117.592 27.3039 117.342 27.2165L117.305 27.2037L117.27 27.1888C116.993 27.0702 116.661 26.9843 116.259 26.9399L116.247 26.9385C115.827 26.8881 115.423 26.8635 115.034 26.8635H112.103L111.296 29.5633H114.43C115.428 29.5633 116.209 29.4153 116.818 29.155C117.435 28.8849 117.794 28.521 117.941 28.0303C118.022 27.7605 117.951 27.6433 117.896 27.5868L117.874 27.5643ZM143.284 7.5593H158.928L151.665 28.6154L167.868 28.8657L164.764 38.8157L132.704 38.8157L143.284 7.5593ZM176.248 7.5593H192.451L182.601 38.8157H166.085L176.248 7.5593ZM194.167 16.1829C192.31 18.1729 191.015 20.4068 190.277 22.8778C189.539 25.3468 189.483 27.6297 190.145 29.7139C190.8 31.7816 192.019 33.573 193.811 35.0718L193.819 35.0781L193.826 35.0842C195.668 36.5506 198.005 37.6775 200.813 38.4721C203.63 39.2691 206.795 39.6604 210.294 39.6604C213.796 39.6604 217.17 39.2687 220.412 38.484C223.646 37.7012 226.586 36.5976 229.228 35.1726L229.234 35.1693C231.886 33.714 234.143 31.9678 236.003 29.9343C237.873 27.8908 239.175 25.6307 239.914 23.1594C240.651 20.692 240.7 18.4344 240.019 16.4018C239.352 14.3565 238.093 12.6023 236.233 11.1578C234.38 9.71979 232.033 8.62236 229.216 7.85727C226.395 7.091 223.23 6.71461 219.735 6.71461C216.238 6.71461 212.871 7.09137 209.64 7.84654C206.413 8.60057 203.48 9.67552 200.846 11.0723L200.84 11.0755C198.243 12.4749 196.018 14.179 194.167 16.1829ZM221.265 25.3806L221.272 25.3729C221.904 24.6243 222.358 23.7942 222.632 22.8778C222.898 21.9895 222.924 21.209 222.743 20.5259L222.738 20.51L222.735 20.494C222.594 19.7751 222.264 19.2211 221.784 18.7991L221.774 18.7908L221.765 18.7822C221.266 18.3142 220.614 17.9465 219.79 17.6804L219.783 17.6781L219.776 17.6757C219.006 17.4164 218.084 17.2763 216.984 17.2763C215.886 17.2763 214.821 17.4159 213.784 17.6967C212.74 17.9791 211.792 18.3764 210.937 18.8902C210.141 19.3696 209.419 19.9839 208.777 20.7436C208.192 21.4647 207.764 22.2684 207.498 23.1594C207.223 24.0794 207.167 24.8958 207.307 25.6163C207.488 26.3462 207.819 26.9523 208.28 27.4493C208.773 27.939 209.415 28.3272 210.22 28.6154C211.035 28.8762 211.979 29.0142 213.071 29.0142C214.166 29.0142 215.204 28.8753 216.193 28.5987C217.245 28.2898 218.202 27.8658 219.068 27.3246C219.93 26.7857 220.66 26.1419 221.259 25.3883L221.265 25.3806ZM69.4957 25.3821L73.0204 20.8353L73.7903 25.3821H69.4957ZM115.132 16.7273H117.942C118.987 16.7273 119.642 16.8599 120.025 17.0388C120.182 17.1115 120.241 17.1778 120.27 17.2334C120.302 17.2957 120.327 17.4072 120.269 17.5985C120.116 18.1104 119.781 18.4514 119.278 18.6818C118.711 18.9164 118.013 19.047 117.148 19.047H114.438L115.132 16.7273Z" />
    <path d="M5.00673 24.3219L10.5115 6.58621H8.20855L20.9358 0L29.9809 6.58621H27.6374L25.3219 17.1343H42.5466L4.5 43L10.9834 24.3219H5.00673Z" />
    <path d="M28.236 14.9527H46.9956L57.9294 7.5593H38.1406L28.236 14.9527Z" />
    <path d="M29.0704 38.8157L25.0537 32.7708L37.9432 24.0079L45.606 34.2867L48.8649 38.8157H29.0704Z" />
  </mask>
  <path d="M41.8491 38.8157L40.3097 37.5388L37.5915 40.8157H41.8491V38.8157ZM69.4957 7.5593V5.5593L68.6009 5.5593L68.0046 6.22646L69.4957 7.5593ZM85.4131 7.5593L87.348 7.05336L86.9574 5.5593L85.4131 5.5593V7.5593ZM93.3626 37.9621L91.4277 38.4681L93.1726 45.1415L95.2681 38.5697L93.3626 37.9621ZM103.057 7.5593V5.5593L101.596 5.5593L101.152 6.95171L103.057 7.5593ZM120.884 7.5593V5.5593V7.5593ZM126.447 7.86099L126.239 9.85017L126.256 9.85188L126.272 9.85332L126.447 7.86099ZM131.892 9.0285L131.186 10.9L131.202 10.9059L131.218 10.9116L131.892 9.0285ZM135.707 11.7239L134.087 12.8964L134.096 12.9091L134.105 12.9215L135.707 11.7239ZM136.197 16.3175L138.113 16.8901V16.8901L136.197 16.3175ZM132.992 20.6256L131.842 18.989L131.833 18.9959L131.823 19.003L132.992 20.6256ZM129.382 22.5043L128.697 20.6253L123.551 22.5016L128.695 24.3827L129.382 22.5043ZM130.26 22.8659L129.424 24.6828L129.449 24.6945L129.475 24.7054L130.26 22.8659ZM132.704 24.4756L131.294 25.8934L131.313 25.9129L131.333 25.9318L132.704 24.4756ZM134.098 26.7265L136.021 26.1753V26.1753L134.098 26.7265ZM134.007 29.5368L135.923 30.1094V30.1094L134.007 29.5368ZM131.117 33.9652L129.812 32.4499L129.803 32.4576L131.117 33.9652ZM126.271 36.8305L127.003 38.692L127.004 38.6916L126.271 36.8305ZM126.267 36.8324L126.991 38.6967L126.998 38.6938L126.267 36.8324ZM120.219 38.3795L120.508 40.3585L120.508 40.3584L120.219 38.3795ZM120.206 38.3814L120.476 40.3631L120.485 40.3618L120.495 40.3604L120.206 38.3814ZM75.8987 38.8157L73.9424 39.2315L74.2791 40.8157H75.8987V38.8157ZM74.9653 34.4234L76.9216 34.0076L76.5849 32.4234H74.9653V34.4234ZM62.6859 34.4234V32.4234H61.7114L61.1108 33.1908L62.6859 34.4234ZM59.2487 38.8157V40.8157H60.2232L60.8237 40.0483L59.2487 38.8157ZM117.854 27.5407L119.402 26.2737L119.402 26.2734L117.854 27.5407ZM117.874 27.5643L116.326 28.8313L116.383 28.9001L116.445 28.9637L117.874 27.5643ZM117.342 27.2165L118.001 25.3283L118.001 25.3282L117.342 27.2165ZM117.305 27.2037L116.518 29.0425L116.581 29.0694L116.646 29.092L117.305 27.2037ZM117.27 27.1888L116.483 29.0275L116.483 29.0275L117.27 27.1888ZM116.259 26.9399L116.479 24.952L116.478 24.9519L116.259 26.9399ZM116.247 26.9385L116.008 28.9243L116.018 28.9255L116.028 28.9265L116.247 26.9385ZM112.103 26.8635V24.8635H110.613L110.186 26.2908L112.103 26.8635ZM111.296 29.5633L109.38 28.9906L108.611 31.5633H111.296V29.5633ZM116.818 29.155L117.604 30.9942L117.613 30.9906L117.621 30.9868L116.818 29.155ZM117.941 28.0303L116.025 27.4576L116.025 27.4577L117.941 28.0303ZM117.896 27.5868L119.325 26.1878L119.325 26.1875L117.896 27.5868ZM143.284 7.5593V5.5593H141.85L141.39 6.91806L143.284 7.5593ZM158.928 7.5593L160.819 8.21148L161.734 5.5593H158.928V7.5593ZM151.665 28.6154L149.774 27.9632L148.874 30.5725L151.634 30.6151L151.665 28.6154ZM167.868 28.8657L169.777 29.4612L170.573 26.9073L167.899 26.866L167.868 28.8657ZM164.764 38.8157V40.8157L166.236 40.8157L166.674 39.4112L164.764 38.8157ZM132.704 38.8157L130.81 38.1745L129.916 40.8157H132.704V38.8157ZM176.248 7.5593V5.5593H174.796L174.346 6.94084L176.248 7.5593ZM192.451 7.5593L194.359 8.16043L195.178 5.5593H192.451V7.5593ZM182.601 38.8157V40.8157H184.068L184.508 39.4169L182.601 38.8157ZM166.085 38.8157L164.183 38.1973L163.331 40.8157H166.085V38.8157ZM194.167 16.1829L195.629 17.5472L195.636 17.5402L194.167 16.1829ZM190.277 22.8778L192.193 23.4504V23.4504L190.277 22.8778ZM190.145 29.7139L192.051 29.1093V29.1093L190.145 29.7139ZM193.811 35.0718L192.528 36.6062L192.529 36.6064L193.811 35.0718ZM193.819 35.0781L192.536 36.6126L192.555 36.6281L192.573 36.6431L193.819 35.0781ZM193.826 35.0842L195.072 33.5196L195.072 33.5192L193.826 35.0842ZM200.813 38.4721L200.269 40.3966L200.813 38.4721ZM220.412 38.484L220.882 40.4279L220.412 38.484ZM229.228 35.1726L230.177 36.9328L230.184 36.9293L230.19 36.9258L229.228 35.1726ZM229.234 35.1693L228.272 33.4159L228.271 33.4161L229.234 35.1693ZM236.003 29.9343L237.479 31.2843V31.2843L236.003 29.9343ZM239.914 23.1594L241.83 23.7321V23.732L239.914 23.1594ZM240.019 16.4018L238.118 17.0222L238.12 17.0296L238.123 17.0371L240.019 16.4018ZM236.233 11.1578L237.459 9.57793L237.459 9.57792L236.233 11.1578ZM229.216 7.85727L229.741 5.92721V5.92721L229.216 7.85727ZM209.64 7.84654L210.095 9.79407L209.64 7.84654ZM200.846 11.0723L199.909 9.30531L199.897 9.31164L200.846 11.0723ZM200.84 11.0755L201.789 12.8361L201.789 12.8361L200.84 11.0755ZM221.272 25.3729L222.799 26.6648L222.8 26.6629L221.272 25.3729ZM221.265 25.3806L219.738 24.0888L219.719 24.112L219.7 24.1359L221.265 25.3806ZM222.632 22.8778L220.716 22.3051V22.3051L222.632 22.8778ZM222.743 20.5259L220.81 21.0397V21.0397L222.743 20.5259ZM222.738 20.51L220.776 20.8961L220.789 20.9604L220.806 21.0238L222.738 20.51ZM222.735 20.494L224.698 20.1079L224.698 20.1078L222.735 20.494ZM221.784 18.7991L220.463 20.3011L220.464 20.3017L221.784 18.7991ZM221.774 18.7908L220.408 20.251L220.43 20.2722L220.454 20.2928L221.774 18.7908ZM221.765 18.7822L220.397 20.2412L220.398 20.2424L221.765 18.7822ZM219.79 17.6804L219.175 19.5833L219.176 19.5837L219.79 17.6804ZM219.783 17.6781L219.143 19.573L219.155 19.5771L219.167 19.581L219.783 17.6781ZM219.776 17.6757L220.415 15.7807L220.414 15.7804L219.776 17.6757ZM213.784 17.6967L213.261 15.7661V15.7661L213.784 17.6967ZM210.937 18.8902L209.907 17.1759L209.905 17.1771L210.937 18.8902ZM208.777 20.7436L207.249 19.4526L207.236 19.4682L207.223 19.484L208.777 20.7436ZM207.498 23.1594L209.414 23.7321L209.414 23.732L207.498 23.1594ZM207.307 25.6163L205.343 25.9965L205.353 26.0483L205.366 26.0994L207.307 25.6163ZM208.28 27.4493L206.813 28.8092L206.842 28.8398L206.871 28.8691L208.28 27.4493ZM210.22 28.6154L209.546 30.4985L209.578 30.5098L209.61 30.5202L210.22 28.6154ZM216.193 28.5987L216.731 30.5248L216.744 30.5213L216.756 30.5178L216.193 28.5987ZM219.068 27.3246L220.128 29.0203L220.128 29.0203L219.068 27.3246ZM221.259 25.3883L219.694 24.1436L219.693 24.1442L221.259 25.3883ZM69.4957 25.3821L67.915 24.1567L65.4147 27.3821H69.4957V25.3821ZM73.0204 20.8353L74.9924 20.5014L74.2316 16.0085L71.4398 19.6099L73.0204 20.8353ZM73.7903 25.3821V27.3821H76.1574L75.7622 25.0482L73.7903 25.3821ZM115.132 16.7273V14.7273H113.642L113.215 16.1546L115.132 16.7273ZM120.025 17.0388L120.871 15.2261L120.871 15.2261L120.025 17.0388ZM120.27 17.2334L122.047 16.3169L122.047 16.3169L120.27 17.2334ZM120.269 17.5985L118.353 17.0258L118.353 17.0258L120.269 17.5985ZM119.278 18.6818L120.043 20.5298L120.077 20.5157L120.111 20.5002L119.278 18.6818ZM114.438 19.047L112.522 18.4743L111.753 21.047H114.438V19.047ZM10.5115 6.58621L12.4216 7.17907L13.2264 4.58621H10.5115V6.58621ZM5.00673 24.3219L3.09662 23.7291L2.29186 26.3219H5.00673V24.3219ZM8.20855 6.58621L7.28936 4.80996L8.20855 8.58622V6.58621ZM20.9358 0L22.1131 -1.6168L21.1141 -2.3442L20.0166 -1.77626L20.9358 0ZM29.9809 6.58621V8.58622H36.1253L31.1582 4.96942L29.9809 6.58621ZM27.6374 6.58621V4.58621H26.0288L25.6839 6.15739L27.6374 6.58621ZM25.3219 17.1343L23.3684 16.7055L22.8352 19.1343H25.3219V17.1343ZM42.5466 17.1343L43.671 18.7883L49.0458 15.1343H42.5466V17.1343ZM4.5 43L2.61059 42.3442L0.630277 48.0492L5.62444 44.654L4.5 43ZM10.9834 24.3219L12.8728 24.9778L13.7947 22.3219H10.9834V24.3219ZM46.9956 14.9527V16.9527H47.6083L48.1159 16.6095L46.9956 14.9527ZM28.236 14.9527L27.0396 13.35L22.2132 16.9527H28.236V14.9527ZM57.9294 7.5593L59.0497 9.21608L64.4575 5.5593H57.9294V7.5593ZM38.1406 7.5593V5.5593H37.4764L36.9442 5.95659L38.1406 7.5593ZM25.0537 32.7708L23.9292 31.1168L22.2927 32.2294L23.3879 33.8776L25.0537 32.7708ZM29.0704 38.8157L27.4046 39.9226L27.9981 40.8157H29.0704V38.8157ZM37.9432 24.0079L39.5466 22.8126L38.4022 21.2774L36.8187 22.354L37.9432 24.0079ZM48.8649 38.8157V40.8157H52.768L50.4883 37.6476L48.8649 38.8157ZM126.655 5.87181C124.671 5.66454 122.746 5.5593 120.884 5.5593V9.5593C122.596 9.5593 124.381 9.65607 126.239 9.85017L126.655 5.87181ZM132.597 7.15704C130.792 6.47644 128.788 6.05889 126.622 5.86866L126.272 9.85332C128.15 10.0183 129.786 10.3721 131.186 10.9L132.597 7.15704ZM137.328 10.5514C136.183 8.9702 134.541 7.8523 132.566 7.14544L131.218 10.9116C132.592 11.4033 133.506 12.0933 134.087 12.8964L137.328 10.5514ZM138.113 16.8901C138.758 14.7322 138.744 12.4453 137.309 10.5263L134.105 12.9215C134.519 13.4752 134.71 14.3075 134.281 15.7448L138.113 16.8901ZM134.142 22.2623C136.106 20.8825 137.46 19.0759 138.113 16.8901L134.281 15.7448C133.907 16.9963 133.136 18.0806 131.842 18.989L134.142 22.2623ZM130.067 24.3833C131.57 23.8354 132.941 23.1275 134.161 22.2483L131.823 19.003C130.932 19.6451 129.893 20.1892 128.697 20.6253L130.067 24.3833ZM131.096 21.0491C130.76 20.8946 130.418 20.7535 130.069 20.626L128.695 24.3827C128.943 24.4735 129.186 24.5736 129.424 24.6828L131.096 21.0491ZM134.115 23.0578C133.253 22.2 132.217 21.5267 131.045 21.0265L129.475 24.7054C130.235 25.0298 130.831 25.4333 131.294 25.8934L134.115 23.0578ZM136.021 26.1753C135.675 24.969 135.017 23.9055 134.075 23.0194L131.333 25.9318C131.773 26.3454 132.036 26.7914 132.176 27.2778L136.021 26.1753ZM135.923 30.1094C136.307 28.8261 136.397 27.4877 136.021 26.1753L132.176 27.2778C132.298 27.7042 132.305 28.2469 132.091 28.9641L135.923 30.1094ZM132.422 35.4805C134.126 34.0129 135.297 32.2042 135.923 30.1094L132.091 28.9641C131.686 30.3171 130.944 31.4745 129.812 32.4499L132.422 35.4805ZM127.004 38.6916C129.076 37.8762 130.898 36.8095 132.431 35.4727L129.803 32.4576C128.662 33.4524 127.249 34.2967 125.539 34.9695L127.004 38.6916ZM126.998 38.6938L127.003 38.692L125.54 34.9691L125.535 34.9709L126.998 38.6938ZM120.508 40.3584C122.836 40.0177 125.003 39.469 126.991 38.6967L125.543 34.968C123.872 35.6171 122.002 36.0972 119.929 36.4006L120.508 40.3584ZM120.495 40.3604L120.508 40.3585L119.93 36.4005L119.917 36.4024L120.495 40.3604ZM113.769 40.8157C116.023 40.8157 118.259 40.665 120.476 40.3631L119.936 36.3997C117.9 36.677 115.844 36.8157 113.769 36.8157V40.8157ZM62.6859 36.4234H74.9653V32.4234H62.6859V36.4234ZM116.307 28.8077L116.326 28.8313L119.421 26.2973L119.402 26.2737L116.307 28.8077ZM116.682 29.1046C116.688 29.1068 116.642 29.0913 116.567 29.0434C116.488 28.9923 116.395 28.9152 116.307 28.8081L119.402 26.2734C119.004 25.7874 118.497 25.5014 118.001 25.3283L116.682 29.1046ZM116.646 29.092L116.682 29.1048L118.001 25.3282L117.964 25.3155L116.646 29.092ZM116.483 29.0275L116.518 29.0425L118.092 25.365L118.057 25.3501L116.483 29.0275ZM116.039 28.9278C116.282 28.9546 116.418 28.9994 116.483 29.0275L118.057 25.3502C117.569 25.141 117.04 25.014 116.479 24.952L116.039 28.9278ZM116.028 28.9265L116.04 28.9279L116.478 24.9519L116.466 24.9505L116.028 28.9265ZM115.034 28.8635C115.338 28.8635 115.663 28.8827 116.008 28.9243L116.485 24.9528C115.991 24.8935 115.508 24.8635 115.034 24.8635V28.8635ZM112.103 28.8635H115.034V24.8635H112.103V28.8635ZM113.212 30.1359L114.019 27.4361L110.186 26.2908L109.38 28.9906L113.212 30.1359ZM114.43 27.5633H111.296V31.5633H114.43V27.5633ZM116.033 27.3157C115.737 27.442 115.239 27.5633 114.43 27.5633V31.5633C115.616 31.5633 116.681 31.3886 117.604 30.9942L116.033 27.3157ZM116.025 27.4577C116.034 27.4283 116.049 27.3907 116.073 27.351C116.096 27.3114 116.121 27.2822 116.139 27.264C116.173 27.2299 116.157 27.2611 116.016 27.3232L117.621 30.9868C118.606 30.5553 119.496 29.8129 119.857 28.603L116.025 27.4577ZM116.466 28.9858C116.282 28.7968 116.089 28.5095 116.011 28.1341C115.941 27.7943 115.999 27.5447 116.025 27.4576L119.857 28.603C119.964 28.2461 120.027 27.803 119.928 27.3231C119.821 26.8075 119.565 26.4333 119.325 26.1878L116.466 28.9858ZM116.445 28.9637L116.467 28.9861L119.325 26.1875L119.303 26.165L116.445 28.9637ZM192.704 14.8187C190.648 17.0228 189.192 19.5246 188.361 22.3051L192.193 23.4504C192.839 21.2891 193.973 19.323 195.629 17.5472L192.704 14.8187ZM188.361 22.3051C187.532 25.0775 187.432 27.7782 188.238 30.3186L192.051 29.1093C191.535 27.4811 191.546 25.6162 192.193 23.4504L188.361 22.3051ZM188.238 30.3186C189.016 32.7718 190.462 34.8787 192.528 36.6062L195.094 33.5375C193.575 32.2672 192.584 30.7914 192.051 29.1093L188.238 30.3186ZM192.529 36.6064L192.536 36.6126L195.101 33.5436L195.094 33.5373L192.529 36.6064ZM192.573 36.6431L192.581 36.6492L195.072 33.5192L195.064 33.5131L192.573 36.6431ZM192.581 36.6488C194.676 38.3174 197.269 39.5478 200.269 40.3966L201.358 36.5477C198.741 35.8071 196.66 34.7837 195.072 33.5196L192.581 36.6488ZM200.269 40.3966C203.296 41.2531 206.65 41.6604 210.294 41.6604V37.6604C206.941 37.6604 203.964 37.285 201.358 36.5477L200.269 40.3966ZM210.294 41.6604C213.946 41.6604 217.478 41.2517 220.882 40.4279L219.941 36.5401C216.861 37.2857 213.645 37.6604 210.294 37.6604V41.6604ZM220.882 40.4279C224.265 39.6091 227.369 38.4479 230.177 36.9328L228.278 33.4125C225.804 34.7474 223.027 35.7933 219.941 36.5401L220.882 40.4279ZM230.19 36.9258L230.196 36.9224L228.271 33.4161L228.265 33.4195L230.19 36.9258ZM230.196 36.9226C233.022 35.3719 235.457 33.4942 237.479 31.2843L234.528 28.5843C232.829 30.4414 230.75 32.056 228.272 33.4159L230.196 36.9226ZM237.479 31.2843C239.537 29.034 240.999 26.5122 241.83 23.7321L237.998 22.5867C237.351 24.7492 236.208 26.7476 234.528 28.5843L237.479 31.2843ZM241.83 23.732C242.657 20.9642 242.756 18.2744 241.916 15.7665L238.123 17.0371C238.645 18.5945 238.645 20.4197 237.998 22.5868L241.83 23.732ZM241.921 15.7814C241.119 13.3259 239.61 11.2474 237.459 9.57793L235.006 12.7376C236.577 13.9571 237.584 15.3871 238.118 17.0222L241.921 15.7814ZM237.459 9.57792C235.35 7.941 232.747 6.74373 229.741 5.92721L228.692 9.78733C231.319 10.501 233.41 11.4986 235.006 12.7376L237.459 9.57792ZM229.741 5.92721C226.716 5.10575 223.37 4.71461 219.735 4.71461V8.71461C223.09 8.71461 226.074 9.07625 228.692 9.78733L229.741 5.92721ZM219.735 4.71461C216.093 4.71461 212.573 5.10706 209.185 5.89902L210.095 9.79407C213.169 9.07568 216.382 8.71461 219.735 8.71461V4.71461ZM209.185 5.89902C205.809 6.6878 202.712 7.81922 199.909 9.30535L201.783 12.8393C204.249 11.5318 207.017 10.5133 210.095 9.79407L209.185 5.89902ZM199.897 9.31164L199.891 9.31478L201.789 12.8361L201.795 12.833L199.897 9.31164ZM199.891 9.31477C197.115 10.8109 194.71 12.6473 192.698 14.8257L195.636 17.5402C197.326 15.7106 199.371 14.1389 201.789 12.8361L199.891 9.31477ZM219.745 24.0811L219.738 24.0888L222.792 26.6724L222.799 26.6648L219.745 24.0811ZM220.716 22.3051C220.524 22.9481 220.205 23.536 219.743 24.083L222.8 26.6629C223.602 25.7127 224.193 24.6403 224.548 23.4504L220.716 22.3051ZM220.81 21.0397C220.877 21.2936 220.899 21.6911 220.716 22.3051L224.548 23.4504C224.896 22.2879 224.971 21.1243 224.676 20.0121L220.81 21.0397ZM220.806 21.0238L220.81 21.0397L224.676 20.0121L224.671 19.9962L220.806 21.0238ZM220.773 20.88L220.776 20.8961L224.701 20.1239L224.698 20.1079L220.773 20.88ZM220.464 20.3017C220.604 20.4246 220.714 20.582 220.773 20.8802L224.698 20.1078C224.473 18.9681 223.925 18.0175 223.104 17.2964L220.464 20.3017ZM220.454 20.2928L220.463 20.3011L223.104 17.297L223.095 17.2887L220.454 20.2928ZM220.398 20.2424L220.408 20.251L223.141 17.3305L223.132 17.322L220.398 20.2424ZM219.176 19.5837C219.781 19.7791 220.156 20.0152 220.397 20.2412L223.133 17.3232C222.376 16.6131 221.448 16.1139 220.404 15.7771L219.176 19.5837ZM219.167 19.581L219.175 19.5833L220.405 15.7774L220.398 15.7751L219.167 19.581ZM219.136 19.5707L219.143 19.573L220.422 15.7831L220.415 15.7807L219.136 19.5707ZM216.984 19.2763C217.919 19.2763 218.618 19.396 219.137 19.571L220.414 15.7804C219.395 15.4369 218.248 15.2763 216.984 15.2763V19.2763ZM214.306 19.6272C215.169 19.3937 216.058 19.2763 216.984 19.2763V15.2763C215.714 15.2763 214.473 15.4382 213.261 15.7661L214.306 19.6272ZM211.967 20.6046C212.651 20.1936 213.426 19.8655 214.306 19.6272L213.261 15.7661C212.054 16.0928 210.933 16.5592 209.907 17.1759L211.967 20.6046ZM210.304 22.0347C210.81 21.4366 211.366 20.9667 211.969 20.6034L209.905 17.1771C208.916 17.7725 208.028 18.5311 207.249 19.4526L210.304 22.0347ZM209.414 23.732C209.604 23.0957 209.908 22.5246 210.33 22.0032L207.223 19.484C206.477 20.4048 205.924 21.4411 205.582 22.5868L209.414 23.732ZM209.27 25.236C209.205 24.8983 209.21 24.4144 209.414 23.7321L205.582 22.5867C205.236 23.7444 205.13 24.8933 205.343 25.9965L209.27 25.236ZM209.746 26.0894C209.524 25.8499 209.351 25.5489 209.247 25.1331L205.366 26.0994C205.626 27.1436 206.114 28.0547 206.813 28.8092L209.746 26.0894ZM210.894 26.7322C210.309 26.5231 209.936 26.2751 209.689 26.0296L206.871 28.8691C207.611 29.6029 208.52 30.1314 209.546 30.4985L210.894 26.7322ZM213.071 27.0142C212.146 27.0142 211.412 26.897 210.83 26.7105L209.61 30.5202C210.658 30.8553 211.813 31.0142 213.071 31.0142V27.0142ZM215.654 26.6727C214.851 26.8974 213.994 27.0142 213.071 27.0142V31.0142C214.337 31.0142 215.558 30.8532 216.731 30.5248L215.654 26.6727ZM218.008 25.6288C217.308 26.0661 216.52 26.4182 215.629 26.6797L216.756 30.5178C217.97 30.1614 219.097 29.6655 220.128 29.0203L218.008 25.6288ZM219.693 24.1442C219.246 24.7076 218.69 25.2022 218.008 25.6288L220.128 29.0203C221.17 28.3692 222.075 27.5763 222.825 26.6324L219.693 24.1442ZM219.7 24.1359L219.694 24.1436L222.825 26.633L222.831 26.6253L219.7 24.1359ZM71.0764 26.6074L74.6011 22.0606L71.4398 19.6099L67.915 24.1567L71.0764 26.6074ZM71.0485 21.1692L71.8184 25.716L75.7622 25.0482L74.9924 20.5014L71.0485 21.1692ZM73.7903 23.3821H69.4957V27.3821H73.7903V23.3821ZM115.132 18.7273H117.942V14.7273H115.132V18.7273ZM117.942 18.7273C118.384 18.7273 118.699 18.7556 118.912 18.7902C119.131 18.8257 119.201 18.8613 119.18 18.8514L120.871 15.2261C120.099 14.8662 119.102 14.7273 117.942 14.7273V18.7273ZM119.18 18.8514C119.142 18.8335 119.028 18.7766 118.892 18.6595C118.74 18.5288 118.599 18.357 118.492 18.15L122.047 16.3169C121.75 15.7394 121.274 15.4144 120.871 15.2261L119.18 18.8514ZM118.492 18.15C118.375 17.9235 118.317 17.6888 118.306 17.4702C118.295 17.2612 118.329 17.1064 118.353 17.0258L122.186 18.1712C122.355 17.6043 122.368 16.9394 122.047 16.3169L118.492 18.15ZM118.353 17.0258C118.355 17.0192 118.362 16.9975 118.38 16.9674C118.397 16.9368 118.418 16.9077 118.441 16.8829C118.489 16.8318 118.51 16.8337 118.446 16.8634L120.111 20.5002C121.044 20.0728 121.84 19.3264 122.186 18.1711L118.353 17.0258ZM118.513 16.8338C118.243 16.9458 117.816 17.047 117.148 17.047V21.047C118.21 21.047 119.18 20.8871 120.043 20.5298L118.513 16.8338ZM117.148 17.047H114.438V21.047H117.148V17.047ZM116.355 19.6196L117.048 17.2999L113.215 16.1546L112.522 18.4743L116.355 19.6196ZM41.8491 40.8157H59.2487V36.8157H41.8491V40.8157ZM68.0046 6.22646L44.1148 32.9539L47.0971 35.6196L70.9869 8.89214L68.0046 6.22646ZM85.4131 5.5593L69.4957 5.5593V9.5593L85.4131 9.5593V5.5593ZM95.2976 37.4562L87.348 7.05336L83.4781 8.06524L91.4277 38.4681L95.2976 37.4562ZM101.152 6.95171L91.4572 37.3546L95.2681 38.5697L104.963 8.16689L101.152 6.95171ZM120.884 5.5593L103.057 5.5593V9.5593L120.884 9.5593V5.5593ZM75.8987 40.8157H113.769V36.8157H75.8987V40.8157ZM73.009 34.8391L73.9424 39.2315L77.855 38.4L76.9216 34.0076L73.009 34.8391ZM60.8237 40.0483L64.2609 35.6559L61.1108 33.1908L57.6736 37.5832L60.8237 40.0483ZM158.928 5.5593H143.284V9.5593H158.928V5.5593ZM153.556 29.2675L160.819 8.21148L157.038 6.90711L149.774 27.9632L153.556 29.2675ZM167.899 26.866L151.696 26.6156L151.634 30.6151L167.837 30.8655L167.899 26.866ZM166.674 39.4112L169.777 29.4612L165.958 28.2703L162.855 38.2203L166.674 39.4112ZM132.704 40.8157L164.764 40.8157V36.8157L132.704 36.8157V40.8157ZM141.39 6.91806L130.81 38.1745L134.599 39.457L145.179 8.20053L141.39 6.91806ZM192.451 5.5593H176.248V9.5593H192.451V5.5593ZM184.508 39.4169L194.359 8.16043L190.543 6.95816L180.693 38.2146L184.508 39.4169ZM166.085 40.8157H182.601V36.8157H166.085V40.8157ZM174.346 6.94084L164.183 38.1973L167.987 39.4342L178.15 8.17775L174.346 6.94084ZM44.0666 33.0098L40.3097 37.5388L43.3884 40.0926L47.1453 35.5636L44.0666 33.0098ZM8.60137 5.99336L3.09662 23.7291L6.91684 24.9148L12.4216 7.17907L8.60137 5.99336ZM8.20855 8.58622H10.5115V4.58621H8.20855V8.58622ZM20.0166 -1.77626L7.28936 4.80996L9.12775 8.36247L21.855 1.77626L20.0166 -1.77626ZM31.1582 4.96942L22.1131 -1.6168L19.7585 1.6168L28.8037 8.20301L31.1582 4.96942ZM27.6374 8.58622H29.9809V4.58621H27.6374V8.58622ZM27.2754 17.5631L29.5909 7.01504L25.6839 6.15739L23.3684 16.7055L27.2754 17.5631ZM42.5466 15.1343H25.3219V19.1343H42.5466V15.1343ZM5.62444 44.654L43.671 18.7883L41.4222 15.4803L3.37556 41.346L5.62444 44.654ZM9.09403 23.6661L2.61059 42.3442L6.38941 43.6558L12.8728 24.9778L9.09403 23.6661ZM5.00673 26.3219H10.9834V22.3219H5.00673V26.3219ZM46.9956 12.9527H28.236V16.9527H46.9956V12.9527ZM56.8091 5.90253L45.8753 13.296L48.1159 16.6095L59.0497 9.21608L56.8091 5.90253ZM38.1406 9.5593H57.9294V5.5593H38.1406V9.5593ZM29.4323 16.5555L39.337 9.16202L36.9442 5.95659L27.0396 13.35L29.4323 16.5555ZM23.3879 33.8776L27.4046 39.9226L30.7362 37.7089L26.7195 31.6639L23.3879 33.8776ZM36.8187 22.354L23.9292 31.1168L26.1781 34.4247L39.0676 25.6619L36.8187 22.354ZM47.2094 33.0913L39.5466 22.8126L36.3397 25.2033L44.0025 35.4821L47.2094 33.0913ZM50.4883 37.6476L47.2294 33.1186L43.9826 35.4549L47.2415 39.9839L50.4883 37.6476ZM29.0704 40.8157H48.8649V36.8157H29.0704V40.8157Z" fill="#00FBDF" mask="url(#path-1-outside-1_9898_1293)" />
</svg>
