<svg width="190" height="35" viewBox="0 0 190 35" fill="none" xmlns="http://www.w3.org/2000/svg">
<path fill-rule="evenodd" clip-rule="evenodd" d="M30.0692 31.25L33.0938 27.6037L52.3271 6.08588L65.1419 6.08587L71.542 30.5627L79.3468 6.08588L93.699 6.08587C95.1378 6.08587 96.631 6.1672 98.1778 6.32876C99.8057 6.47174 101.271 6.78225 102.561 7.26871C103.909 7.75118 104.938 8.47896 105.633 9.43875C106.377 10.4341 106.46 11.6897 106.027 13.137C105.614 14.5206 104.758 15.6843 103.447 16.6054C102.597 17.2178 101.627 17.7218 100.54 18.1179C100.781 18.2058 101.016 18.3029 101.247 18.409C102.025 18.741 102.682 19.1744 103.215 19.705C103.771 20.2281 104.142 20.8358 104.337 21.5171C104.538 22.2171 104.505 22.9743 104.264 23.7796C103.849 25.1675 103.079 26.3614 101.938 27.3449C100.861 28.2834 99.5586 29.0526 98.0363 29.6517L98.0326 29.6532C96.5595 30.2253 94.9347 30.6395 93.1633 30.8988L93.153 30.9003C91.4413 31.1334 89.7137 31.25 87.9711 31.25H57.482L56.7305 27.7137H46.8446L44.0773 31.25H30.0692ZM91.2755 22.1916L91.2599 22.1726C91.1756 22.0697 91.0486 21.982 90.847 21.9116L90.8177 21.9013L90.7896 21.8893C90.5665 21.7938 90.299 21.7247 89.9755 21.6889L89.9656 21.6878C89.6275 21.6472 89.3024 21.6274 88.9896 21.6274H86.6292L85.9797 23.8009H88.5028C89.3063 23.8009 89.9351 23.6818 90.4258 23.4722C90.922 23.2548 91.2117 22.9619 91.3297 22.5668C91.3947 22.3496 91.3378 22.2552 91.2932 22.2097L91.2755 22.1916ZM111.733 6.08587H124.328L118.48 23.0378L131.525 23.2394L129.026 31.25L103.215 31.25L111.733 6.08587ZM138.272 6.08587H151.316L143.386 31.25H130.089L138.272 6.08587ZM152.698 13.0286C151.203 14.6307 150.161 16.4292 149.566 18.4185C148.972 20.4064 148.927 22.2442 149.46 23.9222C149.988 25.5869 150.968 27.0291 152.412 28.2358L152.418 28.2408L152.424 28.2458C153.906 29.4263 155.788 30.3336 158.049 30.9733C160.316 31.6149 162.865 31.93 165.682 31.93C168.501 31.93 171.217 31.6146 173.827 30.9829C176.431 30.3526 178.798 29.4642 180.925 28.317L180.93 28.3142C183.065 27.1426 184.882 25.7368 186.38 24.0996C187.885 22.4545 188.934 20.6349 189.528 18.6453C190.122 16.6588 190.161 14.8413 189.613 13.2048C189.076 11.5582 188.063 10.1459 186.564 8.98296C185.073 7.82526 183.183 6.94173 180.916 6.32577C178.645 5.70886 176.096 5.40583 173.282 5.40583C170.467 5.40583 167.756 5.70916 165.155 6.31713C162.557 6.92419 160.196 7.78961 158.075 8.91415L158.07 8.91668C155.979 10.0434 154.188 11.4153 152.698 13.0286ZM174.514 20.4335L174.52 20.4274C175.028 19.8247 175.394 19.1563 175.615 18.4185C175.829 17.7034 175.85 17.075 175.704 16.5251L175.7 16.5123L175.698 16.4994C175.584 15.9206 175.319 15.4746 174.932 15.1349L174.924 15.1281L174.917 15.1213C174.515 14.7445 173.99 14.4485 173.327 14.2342L173.321 14.2323L173.315 14.2304C172.696 14.0217 171.953 13.9089 171.067 13.9089C170.184 13.9089 169.327 14.0213 168.491 14.2473C167.651 14.4747 166.888 14.7946 166.199 15.2083C165.559 15.5942 164.977 16.0887 164.46 16.7004C163.989 17.2809 163.645 17.928 163.431 18.6453C163.209 19.386 163.164 20.0432 163.277 20.6233C163.423 21.211 163.689 21.6989 164.06 22.099C164.457 22.4932 164.974 22.8058 165.622 23.0378C166.278 23.2478 167.038 23.3589 167.917 23.3589C168.799 23.3589 169.635 23.2471 170.43 23.0244C171.278 22.7757 172.049 22.4343 172.745 21.9986C173.439 21.5648 174.027 21.0465 174.509 20.4398L174.514 20.4335ZM52.3271 20.4347L55.1647 16.7742L55.7846 20.4347H52.3271ZM89.0679 13.4669H91.3305C92.1716 13.4669 92.6989 13.5736 93.0078 13.7176C93.1334 13.7762 93.1813 13.8296 93.2044 13.8744C93.2302 13.9245 93.2502 14.0142 93.2042 14.1683C93.081 14.5804 92.8113 14.855 92.4062 15.0404C91.9498 15.2293 91.3874 15.3344 90.6908 15.3344H88.5098L89.0679 13.4669Z" fill="#D9D9D9"/>
<path d="M0.407962 19.5812L4.83975 5.30246H2.9857L13.2322 0L20.5143 5.30246H18.6275L16.7634 13.7946H30.6307L0 34.6186L5.21972 19.5812H0.407962Z" fill="#D9D9D9"/>
<path d="M19.1095 12.0382H34.2125L43.0152 6.08588H27.0835L19.1095 12.0382Z" fill="#D9D9D9"/>
<path d="M19.7812 31.25L16.5474 26.3832L26.9246 19.3284L33.0938 27.6037L35.7175 31.25H19.7812Z" fill="#D9D9D9"/>
</svg>
